{
    "asset" : {
        "generator" : "Khronos glTF Blender I/O v1.5.17",
        "version" : "2.0"
    },
    "scene" : 0,
    "scenes" : [
        {
            "name" : "Scene",
            "nodes" : [
                4,
                5,
                6
            ]
        }
    ],
    "nodes" : [
        {
            "mesh" : 0,
            "name" : "defaultMaterial"
        },
        {
            "mesh" : 1,
            "name" : "defaultMaterial.001"
        },
        {
            "children" : [
                0,
                1
            ],
            "name" : "Box005",
            "rotation" : [
                -0.7071068286895752,
                0,
                0,
                0.7071068286895752
            ],
            "scale" : [
                1.19350004196167,
                1.19350004196167,
                1.19350004196167
            ],
            "translation" : [
                0,
                40.8454704284668,
                -10.727964401245117
            ]
        },
        {
            "children" : [
                2
            ],
            "name" : "Collada visual scene group",
            "rotation" : [
                0.7071068286895752,
                0,
                0,
                0.7071068286895752
            ]
        },
        {
            "children" : [
                3
            ],
            "name" : "Sketchfab_model",
            "rotation" : [
                -0.7071068286895752,
                0,
                0,
                0.7071068286895752
            ]
        },
        {
            "name" : "Light",
            "rotation" : [
                0.16907575726509094,
                0.7558803558349609,
                -0.27217137813568115,
                0.570947527885437
            ],
            "translation" : [
                4.076245307922363,
                5.903861999511719,
                -1.0054539442062378
            ]
        },
        {
            "name" : "Camera",
            "rotation" : [
                0.483536034822464,
                0.33687159419059753,
                -0.20870360732078552,
                0.7804827094078064
            ],
            "translation" : [
                7.358891487121582,
                4.958309173583984,
                6.925790786743164
            ]
        }
    ],
    "materials" : [
        {
            "doubleSided" : true,
            "name" : "Ad_16_Body",
            "normalTexture" : {
                "index" : 0
            },
            "occlusionTexture" : {
                "index" : 1
            },
            "pbrMetallicRoughness" : {
                "baseColorTexture" : {
                    "index" : 2
                },
                "metallicRoughnessTexture" : {
                    "index" : 1
                }
            }
        },
        {
            "doubleSided" : true,
            "name" : "Ad_16_Promo",
            "normalTexture" : {
                "index" : 3
            },
            "occlusionTexture" : {
                "index" : 4
            },
            "pbrMetallicRoughness" : {
                "baseColorTexture" : {
                    "index" : 5
                },
                "metallicRoughnessTexture" : {
                    "index" : 4
                }
            }
        }
    ],
    "meshes" : [
        {
            "name" : "defaultMaterial",
            "primitives" : [
                {
                    "attributes" : {
                        "POSITION" : 0,
                        "NORMAL" : 1,
                        "TEXCOORD_0" : 2
                    },
                    "indices" : 3,
                    "material" : 0
                }
            ]
        },
        {
            "name" : "defaultMaterial.001",
            "primitives" : [
                {
                    "attributes" : {
                        "POSITION" : 4,
                        "NORMAL" : 5,
                        "TEXCOORD_0" : 6
                    },
                    "indices" : 7,
                    "material" : 1
                }
            ]
        }
    ],
    "textures" : [
        {
            "sampler" : 0,
            "source" : 0
        },
        {
            "sampler" : 0,
            "source" : 1
        },
        {
            "sampler" : 0,
            "source" : 2
        },
        {
            "sampler" : 0,
            "source" : 3
        },
        {
            "sampler" : 0,
            "source" : 4
        },
        {
            "sampler" : 0,
            "source" : 5
        }
    ],
    "images" : [
        {
            "mimeType" : "image/png",
            "name" : "Ad_16_Body_normal",
            "uri" : "Ad_16_Body_normal.png"
        },
        {
            "mimeType" : "image/png",
            "name" : "Ad_16_Body_metallicRoughness",
            "uri" : "Ad_16_Body_metallicRoughness.png"
        },
        {
            "mimeType" : "image/jpeg",
            "name" : "Ad_16_Body_baseColor",
            "uri" : "Ad_16_Body_baseColor.jpg"
        },
        {
            "mimeType" : "image/png",
            "name" : "Ad_16_Promo_normal",
            "uri" : "Ad_16_Promo_normal.png"
        },
        {
            "mimeType" : "image/png",
            "name" : "Ad_16_Promo_metallicRoughness",
            "uri" : "Ad_16_Promo_metallicRoughness.png"
        },
        {
            "mimeType" : "image/png",
            "name" : "banner",
            "uri" : "banner.png"
        }
    ],
    "accessors" : [
        {
            "bufferView" : 0,
            "componentType" : 5126,
            "count" : 4254,
            "max" : [
                23.005762100219727,
                13.964362144470215,
                44.083251953125
            ],
            "min" : [
                -23.005762100219727,
                -31.941673278808594,
                -34.22325897216797
            ],
            "type" : "VEC3"
        },
        {
            "bufferView" : 1,
            "componentType" : 5126,
            "count" : 4254,
            "type" : "VEC3"
        },
        {
            "bufferView" : 2,
            "componentType" : 5126,
            "count" : 4254,
            "type" : "VEC2"
        },
        {
            "bufferView" : 3,
            "componentType" : 5123,
            "count" : 20136,
            "type" : "SCALAR"
        },
        {
            "bufferView" : 4,
            "componentType" : 5126,
            "count" : 349,
            "max" : [
                19.525083541870117,
                10.421195030212402,
                40.135826110839844
            ],
            "min" : [
                -19.457170486450195,
                -28.378639221191406,
                -24.17289161682129
            ],
            "type" : "VEC3"
        },
        {
            "bufferView" : 5,
            "componentType" : 5126,
            "count" : 349,
            "type" : "VEC3"
        },
        {
            "bufferView" : 6,
            "componentType" : 5126,
            "count" : 349,
            "type" : "VEC2"
        },
        {
            "bufferView" : 7,
            "componentType" : 5123,
            "count" : 360,
            "type" : "SCALAR"
        }
    ],
    "bufferViews" : [
        {
            "buffer" : 0,
            "byteLength" : 51048,
            "byteOffset" : 0
        },
        {
            "buffer" : 0,
            "byteLength" : 51048,
            "byteOffset" : 51048
        },
        {
            "buffer" : 0,
            "byteLength" : 34032,
            "byteOffset" : 102096
        },
        {
            "buffer" : 0,
            "byteLength" : 40272,
            "byteOffset" : 136128
        },
        {
            "buffer" : 0,
            "byteLength" : 4188,
            "byteOffset" : 176400
        },
        {
            "buffer" : 0,
            "byteLength" : 4188,
            "byteOffset" : 180588
        },
        {
            "buffer" : 0,
            "byteLength" : 2792,
            "byteOffset" : 184776
        },
        {
            "buffer" : 0,
            "byteLength" : 720,
            "byteOffset" : 187568
        }
    ],
    "samplers" : [
        {
            "magFilter" : 9729,
            "minFilter" : 9987
        }
    ],
    "buffers" : [
        {
            "byteLength" : 188288,
            "uri" : "banner.bin"
        }
    ]
}
