{
    "asset" : {
        "generator" : "Khronos glTF Blender I/O v1.5.17",
        "version" : "2.0"
    },
    "scene" : 0,
    "scenes" : [
        {
            "name" : "Scene",
            "nodes" : [
                12,
                13,
                14,
                15,
                16
            ]
        }
    ],
    "nodes" : [
        {
            "mesh" : 0,
            "name" : "defaultMaterial.001"
        },
        {
            "children" : [
                0
            ],
            "name" : "Box001",
            "scale" : [
                0.5082589983940125,
                0.5082589983940125,
                0.14181099832057953
            ],
            "translation" : [
                0,
                -4.384152889251709,
                -26.929662704467773
            ]
        },
        {
            "mesh" : 1,
            "name" : "defaultMaterial"
        },
        {
            "children" : [
                2
            ],
            "name" : "Box002",
            "scale" : [
                0.5373240113258362,
                0.5373240113258362,
                0.5373240113258362
            ],
            "translation" : [
                0,
                -4.384152889251709,
                -27.244281768798828
            ]
        },
        {
            "mesh" : 2,
            "name" : "defaultMaterial.002"
        },
        {
            "children" : [
                4
            ],
            "name" : "Cylinder001",
            "rotation" : [
                0,
                1,
                0,
                0
            ],
            "translation" : [
                0.020450999960303307,
                -4.447084903717041,
                -21.162677764892578
            ]
        },
        {
            "mesh" : 3,
            "name" : "defaultMaterial.003"
        },
        {
            "children" : [
                6
            ],
            "name" : "Line001",
            "rotation" : [
                0,
                0.7071068286895752,
                0,
                0.7071068286895752
            ],
            "translation" : [
                0.02184399962425232,
                -0.7735430002212524,
                4.372900009155273
            ]
        },
        {
            "children" : [
                1,
                3,
                5,
                7
            ],
            "name" : "Group001",
            "rotation" : [
                -0.7071068286895752,
                0,
                0,
                0.7071068286895752
            ],
            "translation" : [
                0.08538199961185455,
                27.244281768798828,
                -4.402023792266846
            ]
        },
        {
            "mesh" : 4,
            "name" : "defaultMaterial.004"
        },
        {
            "children" : [
                9
            ],
            "name" : "Line002",
            "rotation" : [
                -0.5,
                0.5,
                -0.5,
                0.5
            ],
            "translation" : [
                0.08427999913692474,
                28.223039627075195,
                -6.184382915496826
            ]
        },
        {
            "children" : [
                8,
                10
            ],
            "name" : "Collada visual scene group",
            "rotation" : [
                0.7071068286895752,
                0,
                0,
                0.7071068286895752
            ]
        },
        {
            "children" : [
                11
            ],
            "name" : "Sketchfab_model",
            "rotation" : [
                -0.49741706252098083,
                -0.5025696158409119,
                -0.5025696158409119,
                0.49741706252098083
            ],
            "translation" : [
                0.7535309791564941,
                0,
                -1.81772780418396
            ]
        },
        {
            "name" : "Light.001",
            "rotation" : [
                0.3123803436756134,
                0.12593135237693787,
                -0.0712909922003746,
                0.9388703107833862
            ],
            "translation" : [
                1.7169251441955566,
                5.903861999511719,
                2.268662452697754
            ]
        },
        {
            "name" : "Camera.001",
            "rotation" : [
                0.48847952485084534,
                -0.3177472949028015,
                0.19685542583465576,
                0.7884621024131775
            ],
            "translation" : [
                -6.247725963592529,
                4.958309173583984,
                5.469402313232422
            ]
        },
        {
            "name" : "Light",
            "rotation" : [
                0.16907575726509094,
                0.7558803558349609,
                -0.27217137813568115,
                0.570947527885437
            ],
            "translation" : [
                4.076245307922363,
                5.903861999511719,
                -1.0054539442062378
            ]
        },
        {
            "name" : "Camera",
            "rotation" : [
                0.483536034822464,
                0.33687159419059753,
                -0.20870360732078552,
                0.7804827094078064
            ],
            "translation" : [
                7.358891487121582,
                4.958309173583984,
                6.925790786743164
            ]
        }
    ],
    "materials" : [
        {
            "doubleSided" : true,
            "name" : "Stand",
            "pbrMetallicRoughness" : {}
        },
        {
            "doubleSided" : true,
            "name" : "flag",
            "normalTexture" : {
                "index" : 0
            },
            "pbrMetallicRoughness" : {
                "baseColorTexture" : {
                    "index" : 1
                },
                "metallicRoughnessTexture" : {
                    "index" : 2
                }
            }
        }
    ],
    "meshes" : [
        {
            "name" : "defaultMaterial.001",
            "primitives" : [
                {
                    "attributes" : {
                        "POSITION" : 0,
                        "NORMAL" : 1,
                        "TEXCOORD_0" : 2
                    },
                    "indices" : 3,
                    "material" : 0
                }
            ]
        },
        {
            "name" : "defaultMaterial",
            "primitives" : [
                {
                    "attributes" : {
                        "POSITION" : 4,
                        "NORMAL" : 5,
                        "TEXCOORD_0" : 6
                    },
                    "indices" : 3,
                    "material" : 0
                }
            ]
        },
        {
            "name" : "defaultMaterial.002",
            "primitives" : [
                {
                    "attributes" : {
                        "POSITION" : 7,
                        "NORMAL" : 8,
                        "TEXCOORD_0" : 9
                    },
                    "indices" : 10,
                    "material" : 0
                }
            ]
        },
        {
            "name" : "defaultMaterial.003",
            "primitives" : [
                {
                    "attributes" : {
                        "POSITION" : 11,
                        "NORMAL" : 12,
                        "TEXCOORD_0" : 13
                    },
                    "indices" : 14,
                    "material" : 0
                }
            ]
        },
        {
            "name" : "defaultMaterial.004",
            "primitives" : [
                {
                    "attributes" : {
                        "POSITION" : 15,
                        "NORMAL" : 16,
                        "TEXCOORD_0" : 17
                    },
                    "indices" : 18,
                    "material" : 1
                }
            ]
        }
    ],
    "textures" : [
        {
            "sampler" : 0,
            "source" : 0
        },
        {
            "sampler" : 0,
            "source" : 1
        },
        {
            "sampler" : 0,
            "source" : 2
        }
    ],
    "images" : [
        {
            "mimeType" : "image/png",
            "name" : "flag_normal",
            "uri" : "flag_normal.png"
        },
        {
            "mimeType" : "image/png",
            "name" : "flag",
            "uri" : "flag.png"
        },
        {
            "mimeType" : "image/png",
            "name" : "flag_metallicRoughness",
            "uri" : "flag_metallicRoughness.png"
        }
    ],
    "accessors" : [
        {
            "bufferView" : 0,
            "componentType" : 5126,
            "count" : 24,
            "max" : [
                2.4560999870300293,
                2.5328528881073,
                1.5350650548934937
            ],
            "min" : [
                -2.4560999870300293,
                -2.5328528881073,
                0
            ],
            "type" : "VEC3"
        },
        {
            "bufferView" : 1,
            "componentType" : 5126,
            "count" : 24,
            "type" : "VEC3"
        },
        {
            "bufferView" : 2,
            "componentType" : 5126,
            "count" : 24,
            "type" : "VEC2"
        },
        {
            "bufferView" : 3,
            "componentType" : 5123,
            "count" : 36,
            "type" : "SCALAR"
        },
        {
            "bufferView" : 4,
            "componentType" : 5126,
            "count" : 24,
            "max" : [
                10.031312942504883,
                10.05683708190918,
                0.6126019954681396
            ],
            "min" : [
                -10.031312942504883,
                -10.05683708190918,
                0
            ],
            "type" : "VEC3"
        },
        {
            "bufferView" : 5,
            "componentType" : 5126,
            "count" : 24,
            "type" : "VEC3"
        },
        {
            "bufferView" : 6,
            "componentType" : 5126,
            "count" : 24,
            "type" : "VEC2"
        },
        {
            "bufferView" : 7,
            "componentType" : 5126,
            "count" : 64,
            "max" : [
                0.09754499793052673,
                0.0927710011601448,
                5.557275772094727
            ],
            "min" : [
                -0.09754499793052673,
                -0.0927710011601448,
                0
            ],
            "type" : "VEC3"
        },
        {
            "bufferView" : 8,
            "componentType" : 5126,
            "count" : 64,
            "type" : "VEC3"
        },
        {
            "bufferView" : 9,
            "componentType" : 5126,
            "count" : 64,
            "type" : "VEC2"
        },
        {
            "bufferView" : 10,
            "componentType" : 5123,
            "count" : 120,
            "type" : "SCALAR"
        },
        {
            "bufferView" : 11,
            "componentType" : 5126,
            "count" : 516,
            "max" : [
                25.535579681396484,
                10.561474800109863,
                0.13099999725818634
            ],
            "min" : [
                -22.871379852294922,
                -3.803617000579834,
                -0.13099999725818634
            ],
            "type" : "VEC3"
        },
        {
            "bufferView" : 12,
            "componentType" : 5126,
            "count" : 516,
            "type" : "VEC3"
        },
        {
            "bufferView" : 13,
            "componentType" : 5126,
            "count" : 516,
            "type" : "VEC2"
        },
        {
            "bufferView" : 14,
            "componentType" : 5123,
            "count" : 852,
            "type" : "SCALAR"
        },
        {
            "bufferView" : 15,
            "componentType" : 5126,
            "count" : 333,
            "max" : [
                22.096616744995117,
                7.659783840179443,
                0.009999999776482582
            ],
            "min" : [
                -26.198787689208984,
                -6.263237953186035,
                0
            ],
            "type" : "VEC3"
        },
        {
            "bufferView" : 16,
            "componentType" : 5126,
            "count" : 333,
            "type" : "VEC3"
        },
        {
            "bufferView" : 17,
            "componentType" : 5126,
            "count" : 333,
            "type" : "VEC2"
        },
        {
            "bufferView" : 18,
            "componentType" : 5123,
            "count" : 660,
            "type" : "SCALAR"
        }
    ],
    "bufferViews" : [
        {
            "buffer" : 0,
            "byteLength" : 288,
            "byteOffset" : 0
        },
        {
            "buffer" : 0,
            "byteLength" : 288,
            "byteOffset" : 288
        },
        {
            "buffer" : 0,
            "byteLength" : 192,
            "byteOffset" : 576
        },
        {
            "buffer" : 0,
            "byteLength" : 72,
            "byteOffset" : 768
        },
        {
            "buffer" : 0,
            "byteLength" : 288,
            "byteOffset" : 840
        },
        {
            "buffer" : 0,
            "byteLength" : 288,
            "byteOffset" : 1128
        },
        {
            "buffer" : 0,
            "byteLength" : 192,
            "byteOffset" : 1416
        },
        {
            "buffer" : 0,
            "byteLength" : 768,
            "byteOffset" : 1608
        },
        {
            "buffer" : 0,
            "byteLength" : 768,
            "byteOffset" : 2376
        },
        {
            "buffer" : 0,
            "byteLength" : 512,
            "byteOffset" : 3144
        },
        {
            "buffer" : 0,
            "byteLength" : 240,
            "byteOffset" : 3656
        },
        {
            "buffer" : 0,
            "byteLength" : 6192,
            "byteOffset" : 3896
        },
        {
            "buffer" : 0,
            "byteLength" : 6192,
            "byteOffset" : 10088
        },
        {
            "buffer" : 0,
            "byteLength" : 4128,
            "byteOffset" : 16280
        },
        {
            "buffer" : 0,
            "byteLength" : 1704,
            "byteOffset" : 20408
        },
        {
            "buffer" : 0,
            "byteLength" : 3996,
            "byteOffset" : 22112
        },
        {
            "buffer" : 0,
            "byteLength" : 3996,
            "byteOffset" : 26108
        },
        {
            "buffer" : 0,
            "byteLength" : 2664,
            "byteOffset" : 30104
        },
        {
            "buffer" : 0,
            "byteLength" : 1320,
            "byteOffset" : 32768
        }
    ],
    "samplers" : [
        {
            "magFilter" : 9729,
            "minFilter" : 9987
        }
    ],
    "buffers" : [
        {
            "byteLength" : 34088,
            "uri" : "flag.bin"
        }
    ]
}
